<svg width="14" height="14" viewBox="0 0 14 14" fill="none" xmlns="http://www.w3.org/2000/svg">
<path d="M7.91604 12.1707L7.30901 12.7777C7.05198 13.0348 6.63635 13.0348 6.38206 12.7777L1.06643 7.46483C0.809399 7.2078 0.809399 6.79218 1.06643 6.53788L6.38206 1.22225C6.63909 0.965222 7.05471 0.965222 7.30901 1.22225L7.91604 1.82928C8.17581 2.08905 8.17034 2.51288 7.9051 2.76718L4.61018 5.90624H12.4688C12.8324 5.90624 13.125 6.19882 13.125 6.56249V7.43749C13.125 7.80116 12.8324 8.09374 12.4688 8.09374H4.61018L7.9051 11.2328C8.17307 11.4871 8.17854 11.9109 7.91604 12.1707Z" fill="#8257E5"/>
</svg>
